<svg xmlns="http://www.w3.org/2000/svg" width="32" height="32" viewBox="0 0 32 32">
    <g fill="none" fill-rule="evenodd">
        <path fill="#FFF" d="M-704-486H736v960H-704z"/>
        <path fill="#747AA5" d="M4.39 4.39c.521-.52 1.365-.52 1.886 0l19.057 19.057v-12.78c0-.693.53-1.263 1.205-1.328l.129-.006c.736 0 1.333.597 1.333 1.334v16a1.358 1.358 0 0 1-.14.596 1.354 1.354 0 0 1-.25.346l.077-.083a1.341 1.341 0 0 1-.059.064l-.019.02a1.36 1.36 0 0 1-.507.317 1.274 1.274 0 0 1-.435.073l.103-.004a1.341 1.341 0 0 1-.066.003l-.037.001h-16a1.333 1.333 0 1 1 0-2.667h12.78L4.391 6.276A1.334 1.334 0 0 1 4.293 4.5z"/>
    </g>
</svg>
