<svg xmlns="http://www.w3.org/2000/svg" width="24" height="24" viewBox="0 0 24 24">
    <g fill="none" fill-rule="evenodd">
        <g fill="#353761" fill-rule="nonzero">
            <g>
                <g>
                    <path d="M15 4c1.105 0 2 .895 2 2v3l5.223-3.482c.23-.153.54-.09.693.139.055.082.084.179.084.277v12.132c0 .276-.224.5-.5.5-.099 0-.195-.03-.277-.084L17 15v3c0 1.105-.895 2-2 2H3c-1.105 0-2-.895-2-2V6c0-1.105.895-2 2-2h12zm-1 2H4c-.513 0-.936.386-.993.883L3 7v10c0 .513.386.936.883.993L4 18h10c.513 0 .936-.386.993-.883L15 17V7c0-.552-.448-1-1-1zM9 8c.513 0 .936.386.993.883L10 9v2h2c.513 0 .936.386.993.883L13 12c0 .513-.386.936-.883.993L12 13h-2v2c0 .513-.386.936-.883.993L9 16c-.513 0-.936-.386-.993-.883L8 15v-2H6c-.513 0-.936-.386-.993-.883L5 12c0-.513.386-.936.883-.993L6 11h2V9c0-.513.386-.936.883-.993L9 8zm12 .737L16.106 12 21 15.263V8.737z" transform="translate(-368 -388) translate(336 240) translate(32 148)"/>
                </g>
            </g>
        </g>
    </g>
</svg>
