<svg xmlns="http://www.w3.org/2000/svg" width="20" height="20" viewBox="0 0 20 20">
    <g fill="none" fill-rule="evenodd">
        <g fill="#825EEB" fill-rule="nonzero">
            <g>
                <g>
                    <path d="M5.345 9.167h11.322c.46 0 .833.373.833.833 0 .46-.373.833-.833.833H5.345l5.244 5.244c.326.326.326.853 0 1.179-.325.325-.853.325-1.178 0l-6.667-6.667c-.325-.325-.325-.853 0-1.178l6.667-6.667c.325-.325.853-.325 1.178 0 .326.326.326.853 0 1.179L5.345 9.167z" transform="translate(-408 -258) translate(400 252) translate(8 6)"/>
                </g>
            </g>
        </g>
    </g>
</svg>
