<svg xmlns="http://www.w3.org/2000/svg" width="21" height="21" viewBox="0 0 21 21">
    <path fill="#595E8A" fill-rule="evenodd" d="M4.167 12.667c.46 0 .833.373.833.833 0 .46-.373.833-.833.833h-.834c-1.38 0-2.5-1.119-2.5-2.5v-7.5c0-1.38 1.12-2.5 2.5-2.5h7.5c1.381 0 2.5 1.12 2.5 2.5v.834c0 .46-.373.833-.833.833-.46 0-.833-.373-.833-.833v-.834c0-.46-.373-.833-.834-.833h-7.5c-.46 0-.833.373-.833.833v7.5c0 .46.373.834.833.834h.834zm2.5-2.5c0-1.381 1.119-2.5 2.5-2.5h7.5c1.38 0 2.5 1.119 2.5 2.5v7.5c0 1.38-1.12 2.5-2.5 2.5h-7.5c-1.381 0-2.5-1.12-2.5-2.5v-7.5zm1.666 0v7.5c0 .46.373.833.834.833h7.5c.46 0 .833-.373.833-.833v-7.5c0-.46-.373-.834-.833-.834h-7.5c-.46 0-.834.373-.834.834z"/>
</svg>
