<svg xmlns="http://www.w3.org/2000/svg" width="32" height="32" viewBox="0 0 32 32">
    <path fill="#2C2C2C" fill-rule="evenodd" d="M3.484 1.613l.125.11 26.4 26.4c.52.52.52 1.364 0 1.885-.482.48-1.238.518-1.76.111l-.126-.11-5.576-5.577c-1.355 1.247-3.08 2.098-4.99 2.37l.005.093v1.333h2.667c.736 0 1.333.598 1.333 1.334 0 .684-.515 1.247-1.178 1.324l-.155.01h-8c-.737 0-1.334-.598-1.334-1.334 0-.684.515-1.247 1.178-1.324l.156-.01h2.666v-1.333l.005-.093c-4.422-.63-7.845-4.36-8-8.919l-.005-.32v-2.668c0-.736.597-1.333 1.334-1.333.684 0 1.247.515 1.324 1.178l.01.155v2.667c0 3.682 2.984 6.667 6.666 6.667 1.7 0 3.252-.637 4.43-1.685l-1.891-1.89c-.691.567-1.575.908-2.54.908-2.208 0-4-1.79-4-4v-3.448L1.724 3.61c-.52-.52-.52-1.364 0-1.885.48-.48 1.237-.518 1.76-.111zm20.745 11.95c.684 0 1.247.514 1.324 1.177l.01.155v2.667c0 .55-.048 1.088-.14 1.611l-2.528-2.527v-1.75c0-.737.597-1.334 1.334-1.334zm-8-12c2.209 0 4 1.79 4 4v8.416l-8-8v-.417c0-2.209 1.79-4 4-4z"/>
</svg>
