<svg xmlns="http://www.w3.org/2000/svg" width="16" height="16" viewBox="0 0 16 16">
    <path fill="#825EEB" d="M14.25 11.109v1.881c.001.354-.147.691-.408.93-.26.239-.61.357-.963.325-1.934-.21-3.791-.87-5.423-1.926-1.519-.963-2.806-2.248-3.771-3.763-1.063-1.637-1.724-3.5-1.93-5.439-.032-.35.086-.698.324-.958.238-.26.574-.409.927-.409H4.89c.631-.006 1.169.455 1.257 1.079.08.602.227 1.193.44 1.763.173.458.062.975-.283 1.323l-.798.797c.895 1.57 2.198 2.87 3.771 3.763l.798-.796c.35-.345.867-.455 1.327-.283.57.213 1.162.36 1.766.44.632.088 1.096.636 1.08 1.273z"/>
</svg>
