<svg xmlns="http://www.w3.org/2000/svg" width="32" height="32" viewBox="0 0 32 32">
    <path fill="#FFF" fill-rule="evenodd" d="M28 21.969v3.613a2.406 2.406 0 0 1-.783 1.784c-.5.459-1.172.685-1.848.624a23.911 23.911 0 0 1-10.414-3.697 23.508 23.508 0 0 1-7.24-7.226A23.803 23.803 0 0 1 4.01 6.626a2.406 2.406 0 0 1 .621-1.841A2.416 2.416 0 0 1 6.411 4h3.62a2.412 2.412 0 0 1 2.414 2.072c.153 1.156.436 2.291.844 3.384.332.88.12 1.872-.543 2.54l-1.532 1.53a19.288 19.288 0 0 0 7.24 7.226l1.533-1.53a2.417 2.417 0 0 1 2.546-.541 15.52 15.52 0 0 0 3.39.843A2.41 2.41 0 0 1 28 21.969z"/>
</svg>

