<svg xmlns="http://www.w3.org/2000/svg" width="32" height="32" viewBox="0 0 32 32">
    <path fill="#FFF" fill-rule="evenodd" d="M3.295 21.264L.74 18.71c-.481-.478-.739-1.137-.709-1.815.03-.679.344-1.313.866-1.749 2.91-2.34 6.328-3.967 9.978-4.75 3.37-.753 6.862-.757 10.23-.01 3.663.78 7.09 2.412 10.002 4.764.52.433.832 1.065.862 1.741.03.676-.225 1.334-.703 1.814l-2.56 2.56c-.848.865-2.205.968-3.172.242-.925-.71-1.928-1.312-2.99-1.796-.857-.388-1.408-1.24-1.413-2.181l.002-2.165c-3.346-.917-6.88-.914-10.229.01l-.002 2.165c-.006.941-.56 1.794-1.417 2.184-1.062.486-2.067 1.09-2.994 1.801-.979.738-2.353.625-3.196-.26z"/>
</svg>
