<svg xmlns="http://www.w3.org/2000/svg" width="20" height="20" viewBox="0 0 20 20">
    <path fill="#FFF" fill-rule="evenodd" d="M18.333 14.145v2.509c.002.47-.195.92-.543 1.24-.348.318-.814.475-1.284.433-2.579-.28-5.056-1.16-7.232-2.568-2.025-1.284-3.741-2.997-5.028-5.018C2.83 8.559 1.95 6.075 1.673 3.49c-.042-.468.115-.932.432-1.278.317-.347.766-.545 1.236-.545h2.514c.841-.009 1.558.607 1.676 1.438.106.803.303 1.592.587 2.35.23.612.083 1.3-.377 1.765L6.676 8.282c1.193 2.094 2.93 3.828 5.028 5.018l1.065-1.062c.465-.46 1.155-.606 1.768-.376.76.283 1.55.48 2.354.585.843.119 1.463.849 1.442 1.698z"/>
</svg>
