<svg xmlns="http://www.w3.org/2000/svg" width="24" height="24" viewBox="0 0 24 24">
    <path fill="#2C2C2C" fill-rule="evenodd" d="M19.432 4.347c.463.463.463 1.213 0 1.676l-5.866 5.866 5.866 5.867c.43.43.46 1.107.092 1.573l-.092.103c-.463.463-1.213.463-1.676 0l-5.867-5.866-5.866 5.866c-.463.463-1.213.463-1.676 0-.463-.463-.463-1.213 0-1.676l5.866-5.867-5.866-5.866c-.43-.43-.46-1.107-.092-1.572l.092-.104c.463-.463 1.213-.463 1.676 0l5.866 5.866 5.867-5.866c.463-.463 1.213-.463 1.676 0z"/>
</svg>
