<svg xmlns="http://www.w3.org/2000/svg" width="20" height="20" viewBox="0 0 20 20">
    <path fill="#FFF" d="M11.768 1.161l7.07 7.071c.977.977.977 2.56 0 3.536l-7.07 7.07c-.977.977-2.56.977-3.536 0l-7.07-7.07c-.977-.977-.977-2.56 0-3.536l7.07-7.07c.977-.977 2.56-.977 3.536 0zM9.41 2.34L2.34 9.41c-.326.326-.326.854 0 1.18l7.07 7.07c.326.326.854.326 1.18 0l7.07-7.07c.326-.326.326-.854 0-1.18l-7.07-7.07c-.326-.326-.854-.326-1.18 0zm1.422 10.16v.417c0 1.11-1.666 1.11-1.666 0V12.5c0-1.111 1.666-1.111 1.666 0zm0-5.833V10c0 1.111-1.666 1.111-1.666 0V6.667c0-1.111 1.666-1.111 1.666 0z"/>
</svg>
