<svg xmlns="http://www.w3.org/2000/svg" width="20" height="20" viewBox="0 0 20 20">
    <g fill="none" fill-rule="evenodd">
        <g fill="#FFF" fill-rule="nonzero">
            <g>
                <g>
                    <path d="M11.133.896l7.963 7.962c.628.629.628 1.647 0 2.275l-7.963 7.963c-.628.628-1.646.628-2.275 0L.896 11.133c-.628-.628-.628-1.646 0-2.275L8.858.896c.629-.628 1.647-.628 2.275 0zm-1.966 13.27c0 1.112 1.666 1.112 1.666 0 0-1.11-1.666-1.11-1.666 0zm1.666-7.5c0-1.11-1.666-1.11-1.666 0v4.167c0 1.111 1.666 1.111 1.666 0z" transform="translate(-48 -734) translate(32 720) translate(16 14)"/>
                </g>
            </g>
        </g>
    </g>
</svg>
