<svg xmlns="http://www.w3.org/2000/svg" width="24" height="24" viewBox="0 0 24 24">
    <g fill="none" fill-rule="evenodd">
        <g fill="#353761" fill-rule="nonzero">
            <g>
                <path d="M19.5 13c1.105 0 2 .895 2 2v4.5c0 1.105-.895 2-2 2H15c-1.105 0-2-.895-2-2V15c0-1.105.895-2 2-2h4.5zM9 13c1.105 0 2 .895 2 2v4.5c0 1.105-.895 2-2 2H4.5c-1.105 0-2-.895-2-2V15c0-1.105.895-2 2-2H9zM9 2.5c1.105 0 2 .895 2 2V9c0 1.105-.895 2-2 2H4.5c-1.105 0-2-.895-2-2V4.5c0-1.105.895-2 2-2H9zm10.5 0c1.105 0 2 .895 2 2V9c0 1.105-.895 2-2 2H15c-1.105 0-2-.895-2-2V4.5c0-1.105.895-2 2-2h4.5z" transform="translate(-716 -432) translate(716 432)"/>
            </g>
        </g>
    </g>
</svg>
