<svg xmlns="http://www.w3.org/2000/svg" width="180" height="40" viewBox="0 0 180 40">
    <path fill="#825EEB" d="M18.021 6.005c8.112 0 14.688 6.576 14.688 14.688 0 7.967-6.343 14.453-14.255 14.682l-.433.006c-7.967-.007-14.452-6.35-14.681-14.262l-.007-.434h7.195c-3.87-.078-7.005-3.142-7.186-6.984l-.009-.352V6.005h14.688zm27.613 7.261c3.697 0 7.022 1.856 7.625 5.536l.05.374h-5.116c-.072-.901-1.045-1.694-2.667-1.694-1.153 0-2.018.397-2.018 1.225 0 2.74 9.982-.144 9.982 7.243 0 3.244-3.063 5.73-7.063 5.73-4.473 0-7.624-2.202-8.14-5.983l-.04-.36h4.865c.108 1.19 1.37 1.983 3.063 1.983 1.513 0 2.378-.505 2.378-1.333 0-2.92-9.946-.325-9.946-6.92 0-3.279 2.667-5.801 7.027-5.801zm18.89 0c4.793 0 8.72 3.747 8.72 8.613l-.009.43c-.011.335-.035.748-.07 1.11l-.029.261H59.984c.36 2.307 2.125 3.784 4.504 3.784 1.865 0 3.092-.766 3.47-1.878l.061-.212h4.973c-.576 3.82-3.928 6.306-8.36 6.306-5.225 0-9.297-4.072-9.297-9.297 0-5.153 4.036-9.117 9.189-9.117zm48.494-6.379V31.32h-5.081v-2.523c-1.225 1.838-3.135 2.883-5.621 2.883-4.577 0-8.217-4.144-8.217-9.225 0-5.08 3.64-9.189 8.217-9.189 2.34 0 4.17.926 5.398 2.567l.223.316V6.887h5.081zm7.857 0v9.226c1.225-1.838 3.134-2.847 5.585-2.847 4.576 0 8.216 4.108 8.216 9.19 0 5.08-3.64 9.224-8.216 9.224-2.306 0-4.134-.894-5.362-2.53l-.223-.317v2.487h-5.082V6.887h5.082zm54.125 0V31.32h-5.081v-2.523c-1.225 1.838-3.135 2.883-5.622 2.883-4.576 0-8.216-4.144-8.216-9.225 0-5.08 3.64-9.189 8.216-9.189 2.34 0 4.17.926 5.399 2.567l.223.316V6.887H175zm-90.04 6.38c4.414 0 7.125 2.86 7.273 7.622l.006.413V31.32h-5.081v-9.37c0-2.305-1.405-3.82-3.496-3.82-2.033 0-3.374 1.386-3.487 3.524l-.008.297v9.369h-5.081V13.627h5.081v2.306c1.117-1.694 2.775-2.667 4.793-2.667zm69.061 0c.405 0 .831.06 1.262.136l.432.079v4.613c-.613-.144-1.226-.252-1.838-.252-2.363 0-4.29 1.373-4.425 4.412l-.007.344v8.72h-5.082V13.627h5.082v2.019c1.044-1.514 2.594-2.379 4.576-2.379zm-12.43.36V31.32h-5.08V13.626h5.08zm-38.086 4.468c-2.45 0-4.433 1.946-4.433 4.36 0 2.45 1.982 4.36 4.433 4.36 2.486 0 4.432-1.874 4.432-4.36 0-2.45-1.946-4.36-4.432-4.36zm21.802 0c-2.487 0-4.432 1.91-4.432 4.36 0 2.486 1.945 4.36 4.432 4.36 2.45 0 4.396-1.91 4.396-4.36 0-2.414-1.946-4.36-4.396-4.36zm40.18 0c-2.45 0-4.433 1.946-4.433 4.36 0 2.45 1.982 4.36 4.433 4.36 2.486 0 4.432-1.874 4.432-4.36 0-2.45-1.946-4.36-4.432-4.36zm-101.18-.721c-1.843 0-3.299.873-3.967 2.742l-.104.32h7.711c-.144-1.8-1.765-3.062-3.64-3.062zm74.726-11.369c1.693 0 3.099 1.406 3.099 3.063 0 1.694-1.406 3.099-3.1 3.099-1.693 0-3.098-1.405-3.098-3.099 0-1.657 1.405-3.063 3.099-3.063z"/>
</svg>
