<svg xmlns="http://www.w3.org/2000/svg" width="16" height="16" viewBox="0 0 16 16">
    <path fill="#747AA5" d="M3 11.125c.345 0 .625.28.625.625s-.28.625-.625.625h-.625c-.345 0-.625-.28-.625-.625s.28-.625.625-.625zm10.625 0c.345 0 .625.28.625.625s-.28.625-.625.625H5.5c-.345 0-.625-.28-.625-.625s.28-.625.625-.625zm0-3.75c.345 0 .625.28.625.625s-.28.625-.625.625H5.5c-.345 0-.625-.28-.625-.625s.28-.625.625-.625zM3 7.375c.345 0 .625.28.625.625s-.28.625-.625.625h-.625c-.345 0-.625-.28-.625-.625s.28-.625.625-.625zm10.625-3.75c.345 0 .625.28.625.625s-.28.625-.625.625H5.5c-.345 0-.625-.28-.625-.625s.28-.625.625-.625zM3 3.625c.345 0 .625.28.625.625s-.28.625-.625.625h-.625c-.345 0-.625-.28-.625-.625s.28-.625.625-.625z"/>
</svg>
