<svg xmlns="http://www.w3.org/2000/svg" width="108" height="24" viewBox="0 0 108 24">
    <path fill="#FFF" fill-rule="evenodd" d="M10.813 3.603c4.867 0 8.813 3.946 8.813 8.813 0 4.78-3.806 8.671-8.553 8.809l-.26.004c-4.78-.005-8.672-3.81-8.81-8.558L2 12.411h4.317c-2.322-.047-4.203-1.885-4.312-4.19L2 8.008V3.603h8.813zM27.38 7.96c2.218 0 4.213 1.113 4.574 3.321l.03.225h-3.07c-.043-.541-.626-1.017-1.6-1.017-.691 0-1.21.238-1.21.735 0 1.644 5.989-.086 5.989 4.346 0 1.946-1.838 3.438-4.238 3.438-2.683 0-4.574-1.321-4.883-3.59l-.025-.215h2.919c.065.713.822 1.189 1.838 1.189.908 0 1.427-.303 1.427-.8 0-1.751-5.968-.195-5.968-4.151 0-1.968 1.6-3.481 4.217-3.481zm11.333 0c2.876 0 5.233 2.248 5.233 5.167l-.006.258c-.007.201-.02.45-.042.667l-.017.156H35.99c.216 1.384 1.276 2.27 2.703 2.27 1.119 0 1.855-.46 2.082-1.126l.037-.128h2.983c-.346 2.292-2.356 3.784-5.016 3.784-3.135 0-5.578-2.443-5.578-5.578 0-3.092 2.422-5.47 5.513-5.47zm29.097-3.828v14.66h-3.049v-1.514c-.735 1.103-1.88 1.73-3.373 1.73-2.745 0-4.93-2.486-4.93-5.535s2.185-5.513 4.93-5.513c1.404 0 2.502.555 3.24 1.54l.133.19V4.131h3.049zm4.714 0v5.536c.735-1.103 1.88-1.708 3.35-1.708 2.747 0 4.93 2.464 4.93 5.513 0 3.048-2.183 5.535-4.93 5.535-1.383 0-2.48-.536-3.216-1.519l-.134-.189v1.492h-3.049V4.132h3.049zm32.475 0v14.66h-3.049v-1.514c-.735 1.103-1.88 1.73-3.373 1.73-2.745 0-4.93-2.486-4.93-5.535s2.185-5.513 4.93-5.513c1.405 0 2.502.555 3.24 1.54l.133.19V4.131H105zM50.976 7.96c2.648 0 4.275 1.716 4.364 4.573l.003.248v6.01h-3.048v-5.62c0-1.384-.843-2.293-2.098-2.293-1.22 0-2.024.831-2.092 2.115l-.005.177v5.622h-3.048V8.176H48.1V9.56c.67-1.017 1.665-1.6 2.876-1.6zm41.437 0c.243 0 .498.036.757.082l.259.047v2.768c-.368-.087-.735-.151-1.103-.151-1.418 0-2.574.824-2.655 2.647l-.004.207v5.232h-3.049V8.176h3.049v1.21c.627-.907 1.556-1.426 2.746-1.426zm-7.458.216v10.616h-3.049V8.176h3.049zm-22.852 2.68c-1.47 0-2.66 1.169-2.66 2.617 0 1.47 1.19 2.616 2.66 2.616 1.492 0 2.66-1.124 2.66-2.616 0-1.47-1.168-2.616-2.66-2.616zm13.081 0c-1.492 0-2.66 1.147-2.66 2.617 0 1.492 1.168 2.616 2.66 2.616 1.47 0 2.638-1.146 2.638-2.616 0-1.448-1.168-2.616-2.638-2.616zm24.108 0c-1.47 0-2.66 1.169-2.66 2.617 0 1.47 1.19 2.616 2.66 2.616 1.492 0 2.66-1.124 2.66-2.616 0-1.47-1.168-2.616-2.66-2.616zm-60.707-.432c-1.106 0-1.98.524-2.381 1.646l-.063.192h4.627c-.086-1.08-1.06-1.838-2.183-1.838zM83.42 3.603c1.016 0 1.859.843 1.859 1.838 0 1.016-.843 1.86-1.86 1.86-1.016 0-1.859-.844-1.859-1.86 0-.995.843-1.838 1.86-1.838z"/>
</svg>
