<svg xmlns="http://www.w3.org/2000/svg" width="64" height="64" viewBox="0 0 64 64">
    <path fill="#B6BDD7" d="M10.667 45.333c1.472 0 2.666 1.194 2.666 2.667 0 1.473-1.194 2.667-2.666 2.667H8c-1.473 0-2.667-1.194-2.667-2.667 0-1.473 1.194-2.667 2.667-2.667zm45.333 0c1.473 0 2.667 1.194 2.667 2.667 0 1.473-1.194 2.667-2.667 2.667H21.333c-1.472 0-2.666-1.194-2.666-2.667 0-1.473 1.194-2.667 2.666-2.667zm0-16c1.473 0 2.667 1.194 2.667 2.667 0 1.473-1.194 2.667-2.667 2.667H21.333c-1.472 0-2.666-1.194-2.666-2.667 0-1.473 1.194-2.667 2.666-2.667zm-45.333 0c1.472 0 2.666 1.194 2.666 2.667 0 1.473-1.194 2.667-2.666 2.667H8c-1.473 0-2.667-1.194-2.667-2.667 0-1.473 1.194-2.667 2.667-2.667zm45.333-16c1.473 0 2.667 1.194 2.667 2.667 0 1.473-1.194 2.667-2.667 2.667H21.333c-1.472 0-2.666-1.194-2.666-2.667 0-1.473 1.194-2.667 2.666-2.667zm-45.333 0c1.472 0 2.666 1.194 2.666 2.667 0 1.473-1.194 2.667-2.666 2.667H8c-1.473 0-2.667-1.194-2.667-2.667 0-1.473 1.194-2.667 2.667-2.667z"/>
</svg>
