<svg xmlns="http://www.w3.org/2000/svg" width="24" height="24" viewBox="0 0 24 24">
    <g fill="none" fill-rule="evenodd">
        <g fill="#FFF" fill-rule="nonzero">
            <g>
                <g>
                    <g>
                        <g>
                            <path d="M20.094 9.25h.156C21.769 9.25 23 10.481 23 12s-1.231 2.75-2.75 2.75h-.079c-.237 0-.452.143-.545.361l-.004.01c-.098.222-.051.482.112.65l.055.054c.516.516.806 1.216.806 1.945 0 .73-.29 1.43-.806 1.945-.515.517-1.215.807-1.945.807s-1.43-.29-1.946-.806l-.047-.048c-.174-.17-.435-.218-.667-.115-.218.093-.36.307-.36.541v.156c0 1.519-1.232 2.75-2.75 2.75-1.52 0-2.75-1.231-2.75-2.75v-.061c-.006-.245-.16-.46-.444-.567-.223-.098-.483-.051-.65.112l-.055.055c-.516.516-1.216.806-1.945.806-.73 0-1.43-.29-1.945-.806-.517-.515-.807-1.215-.807-1.945s.29-1.43.806-1.946l.048-.047c.17-.174.218-.435.115-.667-.093-.218-.307-.36-.541-.36H3.75c-1.519 0-2.75-1.232-2.75-2.75 0-1.52 1.231-2.75 2.75-2.75h.061c.245-.006.46-.16.567-.444.098-.223.051-.483-.112-.65l-.055-.055c-.516-.516-.806-1.216-.806-1.945 0-.73.29-1.43.806-1.945.515-.517 1.215-.807 1.945-.807s1.43.29 1.946.806l.047.048c.174.17.435.218.658.12.058-.027.12-.046.182-.06.16-.108.26-.29.261-.486V3.75C9.25 2.231 10.481 1 12 1s2.75 1.231 2.75 2.75v.079c0 .237.143.452.37.549.223.098.483.051.65-.112l.055-.055c.516-.516 1.216-.806 1.945-.806.73 0 1.43.29 1.945.806.517.515.807 1.215.807 1.945s-.29 1.43-.806 1.946l-.048.047c-.17.174-.218.435-.12.658.027.058.046.12.06.182.108.16.29.26.486.261zm-.075 3.65h.081c.497 0 .9-.403.9-.9s-.403-.9-.9-.9h-.157c-.95-.004-1.808-.572-2.182-1.445-.033-.077-.055-.157-.065-.238-.299-.85-.092-1.805.553-2.463l.054-.055c.169-.169.264-.398.264-.636 0-.24-.095-.468-.265-.638-.169-.169-.398-.264-.636-.264-.24 0-.468.095-.638.264l-.06.061c-.698.682-1.74.871-2.623.481-.873-.374-1.441-1.232-1.445-2.186V3.9c0-.497-.403-.9-.9-.9s-.9.403-.9.9v.157c-.004.95-.572 1.808-1.445 2.182-.077.033-.157.055-.238.065-.85.299-1.805.092-2.463-.553l-.055-.054c-.169-.169-.398-.264-.636-.264-.24 0-.468.095-.638.265-.169.169-.264.398-.264.636 0 .24.095.468.264.638l.061.06c.682.698.871 1.74.499 2.579-.338.919-1.204 1.538-2.204 1.561H3.9c-.497 0-.9.403-.9.9s.403.9.9.9h.157c.95.004 1.808.572 2.178 1.437.394.892.205 1.933-.484 2.637l-.054.055c-.169.169-.264.398-.264.637 0 .238.095.467.265.637.169.169.398.264.636.264.24 0 .468-.095.638-.264l.06-.061c.698-.682 1.74-.871 2.579-.499.919.338 1.538 1.204 1.561 2.204v.081c0 .497.403.9.9.9s.9-.403.9-.9v-.157c.004-.95.572-1.808 1.437-2.178.892-.394 1.933-.205 2.637.484l.055.054c.169.169.398.264.637.264.238 0 .467-.095.637-.265.169-.169.264-.398.264-.636 0-.24-.095-.468-.264-.638l-.061-.06c-.681-.696-.87-1.736-.48-2.627.376-.871 1.232-1.437 2.185-1.441zM12 16c-2.21 0-4-1.79-4-4s1.79-4 4-4 4 1.79 4 4-1.79 4-4 4zm0-2c1.105 0 2-.895 2-2s-.895-2-2-2-2 .895-2 2 .895 2 2 2z" transform="translate(-76 -892) translate(0 872) translate(48) translate(14 20) translate(14)"/>
                        </g>
                    </g>
                </g>
            </g>
        </g>
    </g>
</svg>
