<svg xmlns="http://www.w3.org/2000/svg" width="20" height="20" viewBox="0 0 20 20">
    <g fill="none" fill-rule="evenodd">
        <g fill="#2FBA9F">
            <g>
                <g>
                    <path d="M10 .833c5.063 0 9.167 4.104 9.167 9.167S15.063 19.167 10 19.167.833 15.063.833 10 4.937.833 10 .833zm4.75 6.072c-.303-.297-.775-.316-1.1-.059l-.078.07-5.134 5.228-2.01-2.046c-.323-.328-.85-.333-1.179-.01-.303.297-.33.77-.079 1.099l.069.079 2.604 2.651c.301.307.781.33 1.11.071l.079-.07 5.73-5.834c.322-.328.317-.856-.011-1.179z" transform="translate(-48 -806) translate(32 792) translate(16 14)"/>
                </g>
            </g>
        </g>
    </g>
</svg>
