<svg xmlns="http://www.w3.org/2000/svg" width="24" height="24" viewBox="0 0 24 24">
    <g fill="none" fill-rule="evenodd">
        <g fill="#FFF" fill-rule="nonzero">
            <g>
                <g>
                    <g>
                        <g>
                            <path d="M16 14c2.761 0 5 2.239 5 5v2c0 .552-.448 1-1 1s-1-.448-1-1v-2c0-1.657-1.343-3-3-3H8c-1.657 0-3 1.343-3 3v2c0 .552-.448 1-1 1s-1-.448-1-1v-2c0-2.761 2.239-5 5-5zM12 2c2.761 0 5 2.239 5 5s-2.239 5-5 5-5-2.239-5-5 2.239-5 5-5zm0 2c-1.657 0-3 1.343-3 3s1.343 3 3 3 3-1.343 3-3-1.343-3-3-3z" transform="translate(-1260 -892) translate(0 872) translate(1232) translate(4 20) translate(24)"/>
                        </g>
                    </g>
                </g>
            </g>
        </g>
    </g>
</svg>
