<svg xmlns="http://www.w3.org/2000/svg" width="32" height="32" viewBox="0 0 32 32">
    <path fill="#FFF" fill-rule="evenodd" d="M3.484 1.613l.125.11 26.4 26.4c.52.52.52 1.364 0 1.885-.482.48-1.238.518-1.76.111l-.126-.11-5.504-5.504c-.236 1.231-1.319 2.162-2.619 2.162H4c-1.473 0-2.667-1.194-2.667-2.667V8c0-1.3.931-2.383 2.163-2.619L1.724 3.609c-.52-.52-.52-1.364 0-1.885.48-.48 1.237-.518 1.76-.111zM20 5.333c1.473 0 2.667 1.194 2.667 2.667v4l6.963-4.642c.307-.205.72-.122.925.185.073.11.112.238.112.37v16.175c0 .097-.021.189-.058.272L11.58 5.333H20z"/>
</svg>
