<svg xmlns="http://www.w3.org/2000/svg" width="16" height="16" viewBox="0 0 16 16">
    <g fill="none" fill-rule="evenodd">
        <g fill="#F24D6B">
            <g>
                <g>
                    <g>
                        <path d="M1.742.806l.063.056 13.2 13.2c.26.26.26.682 0 .942-.241.24-.62.259-.88.056l-.064-.056-2.788-2.788c-.677.623-1.539 1.049-2.494 1.185l.002.047v.666h1.333c.369 0 .667.299.667.667 0 .342-.257.624-.589.662l-.078.005h-4c-.368 0-.666-.299-.666-.667 0-.342.257-.624.589-.662l.077-.005h1.333v-.666l.005-.047c-2.212-.314-3.925-2.18-4.002-4.46l-.002-.16V7.448c0-.368.298-.667.666-.667.342 0 .624.257.663.589l.004.078V8.78c0 1.841 1.492 3.333 3.333 3.333.85 0 1.626-.318 2.215-.842l-.945-.945c-.346.284-.788.454-1.27.454-1.104 0-2-.895-2-2V7.057L.862 1.805c-.26-.26-.26-.683 0-.943.24-.24.618-.259.88-.056zm10.372 5.975c.342 0 .624.257.663.589l.004.078V8.78c0 .275-.024.544-.07.806l-1.263-1.264v-.875c0-.368.298-.667.666-.667zm-4-6c1.105 0 2 .895 2 2v4.208l-4-4v-.208c0-1.105.896-2 2-2z" transform="translate(-12 -836) translate(4 80) translate(0 752) translate(8 4)"/>
                    </g>
                </g>
            </g>
        </g>
    </g>
</svg>
