<svg xmlns="http://www.w3.org/2000/svg" width="20" height="20" viewBox="0 0 20 20">
    <g fill="none" fill-rule="evenodd">
        <path fill="#000" fill-opacity=".38" d="M16.25 13.109v1.881c.001.354-.147.691-.408.93-.26.239-.61.357-.963.325-1.934-.21-3.791-.87-5.423-1.926-1.519-.963-2.806-2.248-3.771-3.763-1.063-1.637-1.724-3.5-1.93-5.439-.032-.35.086-.698.324-.958.238-.26.574-.409.927-.409H6.89c.631-.006 1.169.455 1.257 1.079.08.602.227 1.193.44 1.763.173.458.062.975-.283 1.323l-.798.797c.895 1.57 2.198 2.87 3.771 3.763l.798-.796c.35-.345.867-.455 1.327-.283.57.213 1.162.36 1.766.44.632.088 1.096.636 1.08 1.273z"/>
        <path fill="#2EBA9F" d="M11.433 8.557c.244.244.64.244.884 0l2.673-2.673V7.5c0 .314.232.574.533.618l.092.007c.346 0 .625-.28.625-.625V4.375v-.026c0-.016-.002-.032-.004-.049l-.008-.048c-.003-.017-.007-.034-.012-.05-.018-.064-.046-.123-.082-.176-.022-.033-.048-.064-.077-.093l.063.073c-.016-.022-.033-.042-.052-.062l-.01-.01-.012-.012c-.02-.018-.04-.036-.062-.051-.006-.006-.013-.01-.02-.015-.053-.036-.112-.063-.175-.082l-.05-.012c-.04-.008-.082-.012-.124-.012l.075.004-.048-.003-.027-.001H12.49c-.345 0-.625.28-.625.625s.28.625.625.625h1.616l-2.673 2.673c-.217.217-.241.554-.072.798z"/>
    </g>
</svg>
