<svg xmlns="http://www.w3.org/2000/svg" width="20" height="20" viewBox="0 0 20 20">
    <g fill="none" fill-rule="evenodd">
        <path fill="#000" fill-opacity=".38" d="M13.125 16.875c0 .69-.56 1.25-1.25 1.25h-7.5c-.69 0-1.25-.56-1.25-1.25v-7.5c0-.69.56-1.25 1.25-1.25h7.5c.69 0 1.25.56 1.25 1.25v1.875l3.264-2.176c.144-.096.338-.057.434.087.034.05.052.111.052.173v7.582c0 .173-.14.313-.313.313-.061 0-.122-.019-.173-.053L13.125 15v1.875z"/>
        <path fill="#2EBA9F" d="M11.433 6.692c.244.244.64.244.884 0l2.673-2.673v1.616c0 .313.232.573.533.618l.092.007c.346 0 .625-.28.625-.625V2.51v-.027c0-.016-.002-.032-.004-.048l-.008-.048-.012-.051c-.018-.063-.046-.122-.082-.175-.022-.033-.048-.064-.077-.093l.063.073c-.016-.022-.033-.043-.052-.062l-.01-.011-.012-.011c-.02-.019-.04-.036-.062-.052l-.02-.014c-.053-.036-.112-.064-.175-.082l-.05-.012c-.04-.008-.082-.012-.124-.012l.075.004-.048-.004H12.49c-.345 0-.625.28-.625.625s.28.625.625.625h1.616l-2.673 2.673c-.217.217-.241.554-.072.797z"/>
    </g>
</svg>
