<svg xmlns="http://www.w3.org/2000/svg" width="64" height="64" viewBox="0 0 64 64">
    <g fill="none" fill-rule="evenodd">
        <path fill="#A8A8A8" d="M0 0H64V64H0z"/>
        <path fill="#FFF" d="M38 35c4.142 0 7.5 3.358 7.5 7.5v3c0 .828-.672 1.5-1.5 1.5s-1.5-.672-1.5-1.5v-3c0-2.485-2.015-4.5-4.5-4.5H26c-2.485 0-4.5 2.015-4.5 4.5v3c0 .828-.672 1.5-1.5 1.5s-1.5-.672-1.5-1.5v-3c0-4.142 3.358-7.5 7.5-7.5zm-6-18c4.142 0 7.5 3.358 7.5 7.5 0 4.142-3.358 7.5-7.5 7.5-4.142 0-7.5-3.358-7.5-7.5 0-4.142 3.358-7.5 7.5-7.5zm0 3c-2.485 0-4.5 2.015-4.5 4.5S29.515 29 32 29s4.5-2.015 4.5-4.5S34.485 20 32 20z"/>
    </g>
</svg>
