<svg xmlns="http://www.w3.org/2000/svg" width="20" height="20" viewBox="0 0 20 20">
    <g fill="none" fill-rule="evenodd">
        <path fill="#000" fill-opacity=".38" d="M13.125 16.875c0 .69-.56 1.25-1.25 1.25h-7.5c-.69 0-1.25-.56-1.25-1.25v-7.5c0-.69.56-1.25 1.25-1.25h7.5c.69 0 1.25.56 1.25 1.25v1.875l3.264-2.176c.144-.096.338-.057.434.087.034.05.052.111.052.173v7.582c0 .173-.14.313-.313.313-.061 0-.122-.019-.173-.053L13.125 15v1.875z"/>
        <path fill="#FF8D4B" fill-rule="nonzero" d="M16.057 2.068c-.244-.244-.64-.244-.884 0L12.5 4.74V3.125c0-.314-.231-.574-.533-.618l-.092-.007c-.345 0-.625.28-.625.625v3.151l.004.049.008.048.013.05c.018.064.045.123.081.176.022.033.048.064.077.093l-.062-.073c.015.022.033.042.051.062l.011.01.011.012c.02.018.04.036.062.051l.02.015c.053.036.112.063.175.082l.051.012c.04.008.08.012.123.012l-.075-.004.049.003.026.001H15c.345 0 .625-.28.625-.625s-.28-.625-.625-.625h-1.616l2.673-2.673c.217-.217.241-.554.073-.798z"/>
    </g>
</svg>
