<svg xmlns="http://www.w3.org/2000/svg" width="24" height="24" viewBox="0 0 24 24">
    <g fill="none" fill-rule="evenodd" transform="translate(-20 -20)">
        <circle cx="32" cy="32" r="32" fill="#7B53EF"/>
        <path fill="#FFF" d="M42 36.974v3.01c.002.566-.235 1.106-.652 1.488-.417.382-.977.57-1.54.52-3.095-.336-6.068-1.391-8.68-3.081-2.429-1.541-4.489-3.597-6.033-6.022-1.7-2.618-2.757-5.599-3.087-8.701-.05-.561.137-1.118.518-1.534.38-.416.919-.653 1.483-.654h3.017c1.01-.01 1.87.729 2.011 1.726.128.964.364 1.91.704 2.82.276.734.1 1.56-.452 2.118l-1.277 1.275c1.431 2.512 3.516 4.593 6.033 6.021l1.277-1.274c.559-.551 1.387-.728 2.122-.452.912.34 1.86.575 2.826.703 1.01.142 1.755 1.018 1.73 2.037z"/>
    </g>
</svg>
