<svg xmlns="http://www.w3.org/2000/svg" width="20" height="20" viewBox="0 0 20 20">
    <g fill="none" fill-rule="evenodd">
        <path fill="#000" fill-opacity=".38" d="M16.25 13.109v1.881c.001.354-.147.691-.408.93-.26.239-.61.357-.963.325-1.934-.21-3.791-.87-5.423-1.926-1.519-.963-2.806-2.248-3.771-3.763-1.063-1.637-1.724-3.5-1.93-5.439-.032-.35.086-.698.324-.958.238-.26.574-.409.927-.409H6.89c.631-.006 1.169.455 1.257 1.079.08.602.227 1.193.44 1.763.173.458.062.975-.283 1.323l-.798.797c.895 1.57 2.198 2.87 3.771 3.763l.798-.796c.35-.345.867-.455 1.327-.283.57.213 1.162.36 1.766.44.632.088 1.096.636 1.08 1.273z"/>
        <path fill="#FF8D4B" fill-rule="nonzero" d="M16.057 3.943c-.244-.244-.64-.244-.884 0L12.5 6.616V5c0-.314-.231-.574-.533-.618l-.092-.007c-.345 0-.625.28-.625.625v3.151l.004.049.008.048.013.05c.018.064.045.123.081.176.022.033.048.064.077.093l-.062-.073c.015.022.033.042.051.062l.011.01.011.012c.02.018.04.036.062.051l.02.015c.053.036.112.063.175.082l.051.012c.04.008.08.012.123.012l-.075-.004.049.003.026.001H15c.345 0 .625-.28.625-.625S15.345 7.5 15 7.5h-1.616l2.673-2.673c.217-.217.241-.554.073-.798z"/>
    </g>
</svg>
