<svg xmlns="http://www.w3.org/2000/svg" width="24" height="24" viewBox="0 0 24 24">
    <g fill="none" fill-rule="evenodd">
        <g fill="#353761" fill-rule="nonzero">
            <g>
                <g>
                    <path d="M12 2c.552 0 1 .448 1 1 0 .513-.386.936-.883.993L12 4H4c-.513 0-.936.386-.993.883L3 5v14c0 .513.386.936.883.993L4 20h8c.552 0 1 .448 1 1 0 .513-.386.936-.883.993L12 22H4c-1.598 0-2.904-1.249-2.995-2.824L1 19V5c0-1.598 1.249-2.904 2.824-2.995L4 2h8zm-1.113 5.21c.392-.305.96-.278 1.32.083l.083.094c.305.392.278.96-.083 1.32L9.417 11.5 22 11.5l.117.007c.497.057.883.48.883.993 0 .552-.448 1-1 1l-11.585-.001 1.792 1.794.083.094c.305.392.278.96-.083 1.32-.39.39-1.024.39-1.414 0l-4-4-.083-.094c-.305-.392-.278-.96.083-1.32l4-4z" transform="translate(-720 -388) translate(336 240) matrix(-1 0 0 1 408 148)"/>
                </g>
            </g>
        </g>
    </g>
</svg>
