<svg xmlns="http://www.w3.org/2000/svg" width="40" height="40" viewBox="0 0 40 40">
    <path fill="#FFF" fill-rule="evenodd" d="M4.355 2.016l.157.139L37.51 35.153c.651.651.651 1.706 0 2.357-.6.601-1.546.647-2.2.139l-.157-.139-6.88-6.88c-.294 1.54-1.648 2.703-3.273 2.703H5c-1.84 0-3.333-1.492-3.333-3.333V10c0-1.625 1.163-2.98 2.703-3.274L2.155 4.512c-.651-.651-.651-1.706 0-2.357.6-.601 1.546-.647 2.2-.139zM25 6.666c1.84 0 3.333 1.493 3.333 3.334v5l8.705-5.803c.383-.255.9-.152 1.155.231.092.137.14.298.14.462v20.22c0 .12-.026.236-.072.34L14.478 6.667H25z"/>
</svg>
